<?xml version="1.0" encoding="UTF-8"?>
<svg xmlns="http://www.w3.org/2000/svg" viewBox="0 0 494 433" width="24" height="24">
  <path fill-rule="evenodd" clip-rule="evenodd" d="M41.9325 1.64899C41.9325 1.64899 10.5897 1.09241 1.33147 33.2814C1.33147 33.2814 -3.29762 53.5038 4.70686 67.3256L273.58 103.874C273.58 103.874 289.204 104.524 287.95 122.52C287.95 122.52 285.539 136.434 271.844 136.342L53.6982 150.163L146.666 306.748L246.481 203.688C246.481 203.688 254.485 193.577 269.337 201.276C269.337 201.276 281.199 210.367 274.448 222.333L181.384 365.097L208.484 413.797C208.484 413.797 223.143 433.834 248.603 432.443C248.603 432.443 274.159 432.814 289.686 406.469L488.351 65.7486C488.351 65.7486 503.396 35.9715 483.24 15.4708C483.24 15.4708 470.028 -1.22668 446.014 0.0720112L41.9325 1.64899Z" fill="#14CC80"/>
  <path d="M97.767 224.282L475.617 77.7159C475.617 77.7159 493.748 68.6251 493.748 37.5493C493.748 37.5493 493.748 10.0913 458.548 1.00049L41.9285 1.64983C41.9285 1.64983 -12.1406 5.15676 5.31496 66.659L279.17 105.127C279.17 105.127 300.001 111.482 279.17 136.064L53.6941 150.164L97.767 224.282Z" fill="#30F2A2"/>
</svg>
